<?xml version="1.0" standalone="no"?>
<!DOCTYPE svg PUBLIC "-//W3C//DTD SVG 20010904//EN"
 "http://www.w3.org/TR/2001/REC-SVG-20010904/DTD/svg10.dtd">
<svg version="1.0" xmlns="http://www.w3.org/2000/svg"
 width="1024.000000pt" height="1024.000000pt" viewBox="0 0 1024.000000 1024.000000"
 preserveAspectRatio="xMidYMid meet">
<metadata>
Created by potrace 1.14, written by Peter Selinger 2001-2017
</metadata>
<g transform="translate(0.000000,1024.000000) scale(0.100000,-0.100000)"
fill="#000000" stroke="none">
<path d="M4849 8166 c-2 -2 -40 -7 -83 -11 -43 -4 -88 -9 -100 -11 -12 -2 -41
-6 -66 -9 -53 -6 -201 -38 -285 -60 -33 -9 -67 -18 -75 -20 -8 -2 -16 -4 -17
-5 -2 -2 -6 -3 -10 -5 -5 -1 -15 -4 -23 -7 -8 -4 -53 -19 -100 -35 -47 -15
-88 -32 -91 -36 -3 -5 -9 -8 -13 -6 -20 6 -295 -129 -421 -207 -22 -13 -50
-30 -62 -36 -13 -6 -23 -15 -23 -20 0 -4 -4 -8 -10 -8 -9 0 -106 -65 -120 -80
-3 -3 -23 -18 -45 -35 -22 -16 -45 -34 -51 -40 -6 -5 -28 -23 -50 -40 -77 -60
-394 -385 -376 -385 4 0 2 -4 -3 -8 -31 -22 -225 -290 -225 -310 0 -5 -8 -17
-18 -28 -10 -10 -32 -46 -49 -79 -17 -33 -46 -89 -65 -125 -107 -204 -227
-550 -263 -755 -3 -16 -8 -37 -10 -45 -2 -8 -6 -32 -9 -52 -3 -21 -8 -53 -11
-70 -24 -151 -29 -216 -29 -438 -1 -194 8 -378 19 -412 2 -7 6 -32 9 -55 3
-24 9 -62 12 -85 6 -46 61 -283 71 -308 3 -8 8 -24 10 -35 4 -20 37 -122 52
-160 5 -11 23 -58 41 -105 41 -104 131 -294 142 -298 4 -2 8 -12 8 -23 0 -10
4 -19 9 -19 5 0 13 -10 17 -22 3 -12 22 -45 40 -74 19 -29 34 -57 34 -63 0 -5
3 -11 8 -13 4 -1 21 -23 37 -48 52 -80 159 -220 167 -220 4 0 8 -5 8 -10 0 -6
15 -27 33 -47 62 -70 182 -197 201 -212 10 -9 30 -27 45 -41 14 -14 58 -52 96
-85 39 -32 72 -61 75 -64 3 -3 12 -10 22 -16 9 -5 62 -43 117 -82 56 -40 104
-73 107 -73 3 0 18 -8 32 -19 30 -21 101 -61 177 -100 28 -14 52 -29 53 -33 2
-5 9 -8 16 -8 7 0 49 -16 92 -37 69 -31 240 -97 284 -108 8 -3 52 -15 97 -29
46 -14 95 -27 110 -30 16 -3 59 -12 96 -20 38 -8 87 -18 110 -21 23 -3 53 -8
67 -10 146 -26 665 -26 760 0 8 2 35 7 60 10 134 19 442 96 464 116 6 5 17 9
25 9 43 0 382 157 519 241 40 24 82 49 92 55 11 6 28 18 38 27 10 10 24 17 30
17 7 0 12 4 12 8 0 5 12 15 28 23 15 8 29 16 32 19 3 3 37 30 75 60 71 56 102
82 160 135 18 17 41 37 51 46 32 27 166 171 224 239 30 36 58 67 63 68 4 2 7
9 7 15 0 7 13 26 28 42 27 29 182 257 182 268 0 3 17 34 38 68 43 71 109 207
154 314 33 77 116 315 123 349 2 11 4 21 5 21 2 0 4 10 38 165 56 258 66 355
66 640 1 183 -6 327 -18 400 -3 14 -9 57 -15 95 -16 106 -38 203 -87 390 -3
11 -6 25 -7 30 -2 6 -5 15 -8 20 -4 6 -12 28 -19 50 -19 64 -63 179 -72 190
-4 5 -8 15 -8 23 0 12 -116 249 -161 332 -45 81 -228 349 -259 380 -3 3 -27
32 -55 65 -27 33 -67 77 -87 98 -20 20 -35 37 -33 37 5 0 -164 160 -206 195
-13 11 -50 41 -81 67 -31 27 -60 48 -63 48 -3 0 -14 8 -24 18 -36 32 -50 42
-60 42 -5 0 -11 4 -13 8 -4 11 -203 135 -262 163 -25 13 -46 27 -46 31 0 4 -6
8 -13 8 -7 0 -44 15 -83 34 -79 39 -199 89 -232 97 -4 1 -23 9 -42 17 -19 8
-85 29 -145 47 -95 28 -158 43 -295 70 -32 6 -82 14 -140 21 -25 3 -58 8 -75
11 -33 5 -471 14 -476 9z"/>
</g>
</svg>
